<?xml version="1.0" encoding="utf-8"?>
<!DOCTYPE svg PUBLIC "-//W3C//DTD SVG 1.1//EN" "http://www.w3.org/Graphics/SVG/1.1/DTD/svg11.dtd">
<svg version="1.1" id="Layer_1" xmlns="http://www.w3.org/2000/svg" xmlns:xlink="http://www.w3.org/1999/xlink" x="0px" y="0px"
	 width="612px" height="792px" viewBox="0 0 612 792" enable-background="new 0 0 612 792" xml:space="preserve">
<path fill="#365010" d="M319.861,441.003c0,14.101-5.605,25.345-16.817,33.733s-26.12,12.582-44.725,12.582
	c-22.709,0-42.591-6.838-59.646-20.514l13.954-19.241c1.57,3.424,3.335,6.754,5.288,9.976c2.111,3.419,4.48,6.673,7.087,9.73
	c2.646,3.141,5.667,5.944,8.997,8.348c3.356,2.389,7.021,4.313,10.894,5.716c4.029,1.482,8.29,2.233,12.583,2.216
	c9.155,0,16.308-2.644,21.457-7.932c5.149-5.287,7.724-11.175,7.724-17.662c0.041-5.18-1.271-10.281-3.807-14.798
	c-2.71-4.689-6.483-8.677-11.016-11.641c-5.101-3.364-10.757-5.797-16.708-7.185c-4.382-0.992-7.76-1.763-10.159-2.326
	c-2.399-0.563-5.704-1.518-9.939-2.852c-3.493-1.045-6.888-2.393-10.147-4.027c-3.015-1.632-5.914-3.468-8.678-5.495
	c-2.917-1.984-5.457-4.472-7.503-7.345c-1.935-2.977-3.432-6.217-4.443-9.62c-2.884-9.804-2.287-20.305,1.689-29.719
	c2.11-4.846,5.251-9.173,9.205-12.681c4.037-3.456,8.577-6.274,13.464-8.36c5.043-2.239,10.33-3.882,15.753-4.896
	c5.443-0.997,10.966-1.493,16.5-1.481c20.588,0,38.776,5.851,54.566,17.552l-13.954,19.242c-3.669-8.687-9.325-16.392-16.512-22.498
	c-7.05-5.924-14.737-8.886-23.06-8.886c-8.16,0-14.61,2.114-19.352,6.34c-4.741,4.227-7.099,10.229-7.075,18.005
	c0.023,2.585,0.436,5.151,1.224,7.613c1.001,3.004,2.422,5.852,4.223,8.458c2.561,3.578,5.885,6.542,9.731,8.678
	c5.14,2.971,10.651,5.247,16.389,6.769l3.807,0.845c4.374,1.265,7.724,2.215,10.049,2.852s5.496,1.661,9.51,3.072
	c3.261,1.068,6.413,2.446,9.413,4.113c2.709,1.652,5.324,3.455,7.833,5.397c2.645,1.924,4.903,4.328,6.658,7.087
	c1.652,2.87,2.967,5.922,3.918,9.095C319.37,433.071,319.919,437.03,319.861,441.003z"/>
<path fill="#365010" d="M189.454,433.5c-7.466,14.163-0.49,31.838,24.367,42.092c16.651,6.867,39.061,10.434,61.938,9.853
	c-13.225-10.375-28.92-18.45-47.089-24.224c19.049,4.011,36.061,12.039,51.033,24.082c16.463-17.831-2.75-30.197-57.634-37.101
	c-21.862-2.689-32.731-7.594-32.602-14.702"/>
<path fill="#365010" d="M324.062,390c0.079-7.331-7.047-12.379-21.375-15.146c-35.885-7.118-48.451-19.848-37.698-38.193
	c9.832,12.393,20.98,20.654,33.442,24.782c-11.892-5.952-22.158-14.267-30.8-24.943c14.957-0.591,29.607,3.078,40.498,10.143
	c16.245,10.556,20.812,28.759,15.934,43.344"/>
</svg>
