<svg id="Layer_1" data-name="Layer 1" xmlns="http://www.w3.org/2000/svg" xmlns:xlink="http://www.w3.org/1999/xlink" viewBox="0 0 500 250"><defs><style>.cls-1{fill:#fff;}.cls-2{clip-path:url(#clip-path);}.cls-3{clip-path:url(#clip-path-2);}</style><clipPath id="clip-path"><path class="cls-1" d="M402.19,22.47c4.58,19.92.3,44.78-14.95,59.2a51,51,0,0,1-38,13.86q12.17-21.89,28.89-34.07-17.53,8.46-31.31,33.87-15.15-37.62,35.36-52.18,20.12-5.68,20-20.68"/></clipPath><clipPath id="clip-path-2"><path class="cls-1" d="M308.52,53.6q-.06,8.24,11,11.35,27.7,8,19.4,28.62Q331.33,79.64,321.71,75q9.18,6.69,15.85,18.69a28,28,0,0,1-20.84-7.6c-8.36-7.91-10.71-21.55-8.2-32.48"/></clipPath></defs><path class="cls-1" d="M156.8,153.49q0,17.28-13.74,27.56t-36.54,10.28q-27.83,0-48.73-16.76l11.4-15.72A80.21,80.21,0,0,0,73.51,167a64.38,64.38,0,0,0,5.79,7.95,40.92,40.92,0,0,0,7.35,6.82,37.23,37.23,0,0,0,8.9,4.67,29.43,29.43,0,0,0,10.28,1.81q11.22,0,17.53-6.48t6.31-14.43a24.3,24.3,0,0,0-3.11-12.09,28.25,28.25,0,0,0-9-9.51,42.19,42.19,0,0,0-13.65-5.87c-3.58-.81-6.34-1.44-8.3-1.9s-4.66-1.24-8.12-2.33a51.2,51.2,0,0,1-8.29-3.29,61.54,61.54,0,0,1-7.09-4.49,24.33,24.33,0,0,1-6.13-6,30.2,30.2,0,0,1-3.63-7.86,36.17,36.17,0,0,1,1.38-24.28,29.69,29.69,0,0,1,7.52-10.36,42.66,42.66,0,0,1,11-6.83,58,58,0,0,1,12.87-4,74,74,0,0,1,13.48-1.21q25.23,0,44.58,14.34l-11.4,15.72A49.28,49.28,0,0,0,128.29,79q-8.64-7.26-18.84-7.26-10,0-15.81,5.18T87.86,91.63a21,21,0,0,0,1,6.22,27.37,27.37,0,0,0,3.45,6.91,24.27,24.27,0,0,0,7.95,7.09,54.86,54.86,0,0,0,13.39,5.53l3.11.69q5.36,1.55,8.21,2.33t7.77,2.51a44.11,44.11,0,0,1,7.69,3.36,70,70,0,0,1,6.4,4.41,21.31,21.31,0,0,1,5.44,5.79,35.08,35.08,0,0,1,3.2,7.43A31.93,31.93,0,0,1,156.8,153.49Z"/><path class="cls-1" d="M249.07,175.09q.17,6.57,2.68,9.33c1.66,1.84,3.37,2.76,5.09,2.76v2.08h-37v-2.08q2.58,0,5.18-2.85t2.59-9.93l.18-31.62a36,36,0,0,0-1.73-11.41,26.74,26.74,0,0,0-4.5-8.55,18.46,18.46,0,0,0-6.39-5.1,15.59,15.59,0,0,0-7.52-1.55,16.45,16.45,0,0,0-7.94,2.68,28.38,28.38,0,0,0-7.52,7V174.4q0,7.08,2.59,9.93t5.19,2.85v2.08H163v-2.08q2.76,0,5.27-2.85t2.5-9.93V93.19a21.41,21.41,0,0,0-.86-6.48,10,10,0,0,0-2.16-4,8.15,8.15,0,0,0-2.51-1.81A5.62,5.62,0,0,0,163,80.4V78.5l27.13-9.68a1.32,1.32,0,0,1,1.46.18,1.53,1.53,0,0,1,.61,1.2v50.11a33.92,33.92,0,0,1,6.48-8.38,33.07,33.07,0,0,1,9.42-6.3,25.14,25.14,0,0,1,10.36-2.42,29.06,29.06,0,0,1,21.86,9.07q8.73,9.07,8.73,23.58Z"/><path class="cls-1" d="M311.27,103.21q6.23,0,9.85,3.8a12.57,12.57,0,0,1,3.63,9,11.23,11.23,0,0,1-11.23,11.24,10.17,10.17,0,0,1-5.88-1.65,19.74,19.74,0,0,1-4.58-4.49q-2.16-2.85-2.68-3.37-2.42-2.07-5.52.87a9.57,9.57,0,0,0-3.12,7.25v48.73q0,6.92,2.6,9.76t5.18,2.85v2.08h-37v-2.08q2.76,0,5.27-2.85t2.51-9.76V126.36q0-7.08-2.51-9.93c-1.67-1.9-3.43-2.86-5.27-2.86v-1.9L289.67,102a1.35,1.35,0,0,1,1.47.17,1.57,1.57,0,0,1,.6,1.21V115.3a36,36,0,0,1,9.16-8.46Q306.43,103.21,311.27,103.21Z"/><path class="cls-1" d="M358.61,174.4q0,7.08,2.59,9.93t5.19,2.85v2.08h-37v-2.08q2.76,0,5.27-2.85t2.51-9.93v-48q0-7.08-2.51-9.93c-1.67-1.9-3.43-2.86-5.27-2.86v-1.9L356.54,102a1.36,1.36,0,0,1,1.47.17,1.57,1.57,0,0,1,.6,1.21Z"/><path class="cls-1" d="M412.35,137.42c.46.12,1.15.35,2.08.69q3.27.87,5,1.3t4.83,1.47a34.6,34.6,0,0,1,4.93,2q1.82,1,4.32,2.42a14.11,14.11,0,0,1,3.89,3.2c.92,1.15,1.87,2.48,2.85,4a15,15,0,0,1,2.07,5.1,29.79,29.79,0,0,1,.61,6.14q0,12.94-10.11,20.21t-25.66,7.26q-20.4,0-35.42-12.79l10.36-14.17a42.49,42.49,0,0,0,3.29,7.09,59.09,59.09,0,0,0,5.09,7.43,25.22,25.22,0,0,0,7.26,6.22,17.7,17.7,0,0,0,8.9,2.42q7.08,0,11-4.67t3.89-9.5a14.8,14.8,0,0,0-2.25-7.95,18.66,18.66,0,0,0-5.87-6,25.18,25.18,0,0,0-8.47-3.37c-3.45-.81-6.25-1.5-8.38-2.07a60.79,60.79,0,0,1-8-2.94,26.14,26.14,0,0,1-7.43-4.58,22.72,22.72,0,0,1-4.75-6.83,22.05,22.05,0,0,1-2.07-9.67q0-12.79,9.76-19.7t24.45-6.91a51.64,51.64,0,0,1,32.66,11.06l-10.37,14.34a38.53,38.53,0,0,0-8.73-14.17q-6-6.22-13-6.22a14.13,14.13,0,0,0-6.83,1.64,11.55,11.55,0,0,0-4.66,4.58,13.88,13.88,0,0,0-1.64,6.91,14,14,0,0,0,3.71,9.33Q403.37,135,412.35,137.42Z"/><path class="cls-1" d="M57.06,227.53s197.66-51.44,383-7.17C440.1,220.36,186.49,209.3,57.06,227.53Z"/><path class="cls-1" d="M402.19,22.47c4.58,19.92.3,44.78-14.95,59.2a51,51,0,0,1-38,13.86q12.17-21.89,28.89-34.07-17.53,8.46-31.31,33.87-15.15-37.62,35.36-52.18,20.12-5.68,20-20.68"/><g class="cls-2"><rect class="cls-1" x="335.86" y="26.12" width="72.75" height="68.97" transform="translate(-4.47 42.66) rotate(-6.52)"/></g><path class="cls-1" d="M308.52,53.6q-.06,8.24,11,11.35,27.7,8,19.4,28.62Q331.33,79.64,321.71,75q9.18,6.69,15.85,18.69a28,28,0,0,1-20.84-7.6c-8.36-7.91-10.71-21.55-8.2-32.48"/><g class="cls-3"><rect class="cls-1" x="306.03" y="54.57" width="37.84" height="39.91" transform="translate(214.01 388.91) rotate(-83.48)"/></g></svg>